<svg xmlns="http://www.w3.org/2000/svg" viewBox="0 0 440 60" fill="currentColor">
  <!-- Pixel-art style B3.WTF logo -->
  <!-- Each "pixel" is 10x10 units -->

  <!-- B -->
  <rect x="0" y="0" width="10" height="60"/>
  <rect x="10" y="0" width="10" height="10"/>
  <rect x="20" y="0" width="10" height="10"/>
  <rect x="30" y="0" width="10" height="10"/>
  <rect x="40" y="0" width="10" height="10"/>
  <rect x="40" y="10" width="10" height="10"/>
  <rect x="10" y="25" width="10" height="10"/>
  <rect x="20" y="25" width="10" height="10"/>
  <rect x="30" y="25" width="10" height="10"/>
  <rect x="40" y="35" width="10" height="10"/>
  <rect x="40" y="45" width="10" height="10"/>
  <rect x="10" y="50" width="10" height="10"/>
  <rect x="20" y="50" width="10" height="10"/>
  <rect x="30" y="50" width="10" height="10"/>

  <!-- 3 -->
  <rect x="65" y="0" width="10" height="10"/>
  <rect x="75" y="0" width="10" height="10"/>
  <rect x="85" y="0" width="10" height="10"/>
  <rect x="95" y="0" width="10" height="10"/>
  <rect x="95" y="10" width="10" height="10"/>
  <rect x="75" y="25" width="10" height="10"/>
  <rect x="85" y="25" width="10" height="10"/>
  <rect x="95" y="35" width="10" height="10"/>
  <rect x="95" y="45" width="10" height="10"/>
  <rect x="65" y="50" width="10" height="10"/>
  <rect x="75" y="50" width="10" height="10"/>
  <rect x="85" y="50" width="10" height="10"/>
  <rect x="95" y="50" width="10" height="10"/>

  <!-- dot . -->
  <rect x="120" y="50" width="10" height="10"/>

  <!-- W -->
  <rect x="150" y="0" width="10" height="50"/>
  <rect x="160" y="40" width="10" height="10"/>
  <rect x="160" y="50" width="10" height="10"/>
  <rect x="170" y="30" width="10" height="10"/>
  <rect x="170" y="40" width="10" height="10"/>
  <rect x="180" y="40" width="10" height="10"/>
  <rect x="180" y="50" width="10" height="10"/>
  <rect x="190" y="0" width="10" height="50"/>
  <rect x="200" y="40" width="10" height="10"/>
  <rect x="200" y="50" width="10" height="10"/>
  <rect x="210" y="30" width="10" height="10"/>
  <rect x="210" y="40" width="10" height="10"/>
  <rect x="220" y="40" width="10" height="10"/>
  <rect x="220" y="50" width="10" height="10"/>
  <rect x="230" y="0" width="10" height="50"/>

  <!-- T -->
  <rect x="255" y="0" width="10" height="10"/>
  <rect x="265" y="0" width="10" height="10"/>
  <rect x="275" y="0" width="10" height="10"/>
  <rect x="285" y="0" width="10" height="60"/>
  <rect x="295" y="0" width="10" height="10"/>
  <rect x="305" y="0" width="10" height="10"/>
  <rect x="315" y="0" width="10" height="10"/>

  <!-- F -->
  <rect x="340" y="0" width="10" height="60"/>
  <rect x="350" y="0" width="10" height="10"/>
  <rect x="360" y="0" width="10" height="10"/>
  <rect x="370" y="0" width="10" height="10"/>
  <rect x="380" y="0" width="10" height="10"/>
  <rect x="390" y="0" width="10" height="10"/>
  <rect x="350" y="25" width="10" height="10"/>
  <rect x="360" y="25" width="10" height="10"/>
  <rect x="370" y="25" width="10" height="10"/>
  <rect x="380" y="25" width="10" height="10"/>
</svg>
